<?xml version="1.0" encoding="utf-8"?>
<!-- Generator: Adobe Illustrator 12.0.0, SVG Export Plug-In . SVG Version: 6.00 Build 51448)  -->
<!DOCTYPE svg PUBLIC "-//W3C//DTD SVG 1.1//EN" "http://www.w3.org/Graphics/SVG/1.1/DTD/svg11.dtd" [
	<!ENTITY ns_svg "http://www.w3.org/2000/svg">
	<!ENTITY ns_xlink "http://www.w3.org/1999/xlink">
]>
<svg  version="1.1" xmlns="&ns_svg;" xmlns:xlink="&ns_xlink;" width="591" height="570" viewBox="0 0 591 570"
	 overflow="visible" enable-background="new 0 0 591 570" xml:space="preserve">
<g id="Layer_1">
	<g id="Layer_3">
		<rect x="0.5" y="0.5" fill="#FFFFFF" stroke="#FFFFFF" width="590" height="569"/>
	</g>
	<g>
		
			<linearGradient id="XMLID_28_" gradientUnits="userSpaceOnUse" x1="15338.5371" y1="2054.9072" x2="17796.1387" y2="2054.9072" gradientTransform="matrix(-0.001 -0.0076 0.1094 -0.015 234.247 262.5496)">
			<stop  offset="0" style="stop-color:#D1D3D4"/>
			<stop  offset="1" style="stop-color:#808284"/>
		</linearGradient>
		<path fill="url(#XMLID_28_)" d="M551.9,55.87c20.4-33.15,22.05-41.55,4.65-25.2c-21.75,28.351-37.05,41.101-45.6,38.25
			c-2.851-0.6-6-3-9.45-7.2c-1.65-3.15-5.7-3.15-12.45,0c-2.25,1.95-12.3-1.05-30.15-8.7c-9.15-4.95-19.35-8.4-30.45-10.2
			c-5.101-0.9-10.5-1.35-16.2-1.5c-5.25,0.15-10.8,0.6-16.5,1.2c-18,2.25-37.8,6.75-59.4,13.8c-23.399,6.3-35.1,11.25-35.25,14.85
			c7.05-1.05,14.851-2.1,23.25-2.85c-1.5,0-2.399-0.3-2.399-0.75c0-1.05,0.75-1.65,2.399-1.5c0.75,0,1.2,0.3,1.2,0.9
			s-0.3,1.05-0.9,1.2c35.55-3.45,71.1-2.55,106.35,3c14.4,3,14.1,1.2-0.9-5.399c-17.1-4.8-15.45-5.7,5.25-2.7
			c22.2,4.35,44.4,8.1,66.75,11.25c16.95,0.15,23.851,1.65,21,4.5l-5.7,2.4c1.65,1.35,3,3,4.05,5.1
			c18.149,22.95,25.2,26.25,21,10.05C537.65,81.82,540.8,68.32,551.9,55.87z"/>
		<path fill="#FFFFFF" d="M480.35,82.271c12.45,7.2,18.3,8.7,17.7,4.5v-6.3c8.4-2.85,14.85-2.55,19.35,0.75l5.7-2.4
			c2.851-2.85-4.05-4.35-21-4.5c-22.35-3.15-44.55-6.9-66.75-11.25c-20.7-3-22.35-2.1-5.25,2.7c15,6.6,15.3,8.399,0.9,5.399
			c-35.25-5.55-70.8-6.45-106.35-3c-0.15,0-0.15,0-0.3,0.15c-8.399,0.75-16.2,1.8-23.25,2.85c-0.149,1.5,1.65,2.851,5.55,3.9
			c8.55,2.85,14.85,4.05,18.75,3.6c1.2-0.3,4.2-0.899,9.15-1.8c-4.95,0.9-7.95,1.5-9.15,1.8c-5.7,2.101,3.9,4.351,29.1,6.45h9
			c-4.8-6.45,3.9-8.7,26.1-6.75c-0.6,2.85-1.05,5.7-1.2,8.7l59.7-2.55c4.95,5.85,9.601,7.5,13.95,4.95c5.4-1.95,6.15-4.35,2.55-7.2
			H480.35z M357.35,68.021c1.05,3.75,1.05,8.399,0,13.8C358.4,76.42,358.4,71.771,357.35,68.021z M359.45,68.32
			c1.05,3.75,1.05,8.4,0,13.8C360.5,76.72,360.5,72.07,359.45,68.32z M352.7,67.42c1.05,3.75,1.05,8.101-0.3,12.9
			C353.75,75.521,353.75,71.17,352.7,67.42z M350.3,67.57c1.2,3.9,1.05,7.95-0.15,12C351.35,75.521,351.5,71.47,350.3,67.57z
			 M354.8,67.72c1.2,3.75,1.05,8.1-0.3,12.75C355.85,75.82,356,71.47,354.8,67.72z"/>
		
			<linearGradient id="XMLID_29_" gradientUnits="userSpaceOnUse" x1="15338.4531" y1="1856.6748" x2="17796.0684" y2="1856.6748" gradientTransform="matrix(-0.001 -0.0076 0.1094 -0.015 234.247 262.5496)">
			<stop  offset="0" style="stop-color:#D1D3D4"/>
			<stop  offset="1" style="stop-color:#808284"/>
		</linearGradient>
		<path fill="url(#XMLID_29_)" d="M428.45,42.82c-5.851-7.65-9-14.25-9.45-19.5c-0.15-14.85-7.95-8.4-23.25,19.2
			c5.7-0.601,11.25-1.05,16.5-1.2C417.95,41.47,423.35,41.92,428.45,42.82z"/>
		
			<linearGradient id="XMLID_30_" gradientUnits="userSpaceOnUse" x1="15338.5605" y1="1487.2515" x2="17796.1563" y2="1487.2515" gradientTransform="matrix(-0.001 -0.0076 0.1094 -0.015 234.247 262.5496)">
			<stop  offset="0" style="stop-color:#D1D3D4"/>
			<stop  offset="1" style="stop-color:#808284"/>
		</linearGradient>
		<path fill="url(#XMLID_30_)" d="M389.6,78.37c-22.2-1.95-30.899,0.3-26.1,6.75c17.55,17.4,26.25,21.75,26.1,13.05
			c-0.899-3.75-1.35-7.5-1.2-11.1C388.55,84.07,389,81.22,389.6,78.37z"/>
		<path d="M324.35,68.32c0.15-0.15,0.15-0.15,0.3-0.15c0.6-0.149,0.9-0.6,0.9-1.2s-0.45-0.9-1.2-0.9
			c-1.649-0.15-2.399,0.45-2.399,1.5C321.95,68.021,322.85,68.32,324.35,68.32z"/>
		
			<linearGradient id="XMLID_31_" gradientUnits="userSpaceOnUse" x1="-849.323" y1="2142.6035" x2="1608.2773" y2="2142.6035" gradientTransform="matrix(-0.0042 -0.0156 0.0926 -0.0248 239.3813 475.1415)">
			<stop  offset="0" style="stop-color:#D1D3D4"/>
			<stop  offset="1" style="stop-color:#808284"/>
		</linearGradient>
		<path fill="url(#XMLID_31_)" d="M512,397.271l17.55,1.95l19.8,11.25c18,5.25,3.75-3.9-42.899-27.15
			c-29.25-12.15-59.4-20.55-90.75-25.2c-12.15-2.25-23.7-3.6-34.2-4.2c-9.75-0.45-18.9-0.3-27.3,0.601c-10.351,0.899-19.8,3-28.2,6
			c-23.1,8.25-28.5,15.45-16.05,21.75c6.75,3.45,22.5,5.399,46.8,5.85c7.8,0.15,16.5,0.15,26.1,0c14.7-0.3,31.351-0.9,49.95-1.95
			l66.45,2.101C502.85,389.47,507.05,392.47,512,397.271z M396.2,369.82c9.149-1.65,18-0.75,26.55,2.85
			C413.9,372.97,405.05,371.92,396.2,369.82z M469.1,377.771c6.45-0.15,12.9,1.5,19.351,4.649
			C482,381.97,475.55,380.32,469.1,377.771z"/>
		
			<linearGradient id="XMLID_32_" gradientUnits="userSpaceOnUse" x1="-849.2424" y1="1995.0845" x2="1608.3145" y2="1995.0845" gradientTransform="matrix(-0.0042 -0.0156 0.0926 -0.0248 239.3813 475.1415)">
			<stop  offset="0" style="stop-color:#D1D3D4"/>
			<stop  offset="1" style="stop-color:#808284"/>
		</linearGradient>
		<path fill="url(#XMLID_32_)" d="M422.75,372.67c-8.55-3.6-17.4-4.5-26.55-2.85C405.05,371.92,413.9,372.97,422.75,372.67z"/>
		
			<linearGradient id="XMLID_33_" gradientUnits="userSpaceOnUse" x1="-849.3081" y1="2669.1309" x2="1608.2944" y2="2669.1309" gradientTransform="matrix(-0.0042 -0.0156 0.0926 -0.0248 239.3813 475.1415)">
			<stop  offset="0" style="stop-color:#D1D3D4"/>
			<stop  offset="1" style="stop-color:#808284"/>
		</linearGradient>
		<path fill="url(#XMLID_33_)" d="M488.45,382.42c-6.45-3.149-12.9-4.8-19.351-4.649C475.55,380.32,482,381.97,488.45,382.42z"/>
		
			<linearGradient id="XMLID_34_" gradientUnits="userSpaceOnUse" x1="-849.303" y1="1624.3042" x2="1608.2981" y2="1624.3042" gradientTransform="matrix(-0.0042 -0.0156 0.0926 -0.0248 239.3813 475.1415)">
			<stop  offset="0" style="stop-color:#D1D3D4"/>
			<stop  offset="1" style="stop-color:#808284"/>
		</linearGradient>
		<path fill="url(#XMLID_34_)" d="M381.5,353.92c-4.05-10.05-6.9-19.5-8.7-28.5c-0.9-22.95-7.05-13.35-18.6,29.101
			C362.6,353.62,371.75,353.47,381.5,353.92z"/>
		
			<linearGradient id="XMLID_35_" gradientUnits="userSpaceOnUse" x1="-849.3271" y1="1549.6792" x2="1608.2896" y2="1549.6792" gradientTransform="matrix(-0.0042 -0.0156 0.0926 -0.0248 239.3813 475.1415)">
			<stop  offset="0" style="stop-color:#D1D3D4"/>
			<stop  offset="1" style="stop-color:#808284"/>
		</linearGradient>
		<path fill="url(#XMLID_35_)" d="M382.85,388.12c-9.6,0.15-18.3,0.15-26.1,0c19.2,36.3,27.75,46.95,26.1,32.1
			C381.5,409.42,381.5,398.771,382.85,388.12z"/>
		
			<linearGradient id="XMLID_36_" gradientUnits="userSpaceOnUse" x1="19178.6738" y1="3993.0957" x2="21636.2773" y2="3993.0957" gradientTransform="matrix(0 -0.0049 0.044 0 245.5181 350.0145)">
			<stop  offset="0" style="stop-color:#D1D3D4"/>
			<stop  offset="1" style="stop-color:#808284"/>
		</linearGradient>
		<path fill="url(#XMLID_36_)" d="M429.05,185.771c1.2-13.5-0.45-15.9-4.95-7.2c-5.399,10.2-9.149,22.05-11.1,35.25
			c2.85,2.4,5.25,4.8,7.05,7.35C420.5,206.32,423.5,194.62,429.05,185.771z"/>
		
			<linearGradient id="XMLID_37_" gradientUnits="userSpaceOnUse" x1="19178.7734" y1="3581.4858" x2="21636.377" y2="3581.4858" gradientTransform="matrix(0 -0.0049 0.044 0 245.5181 350.0145)">
			<stop  offset="0" style="stop-color:#D1D3D4"/>
			<stop  offset="1" style="stop-color:#808284"/>
		</linearGradient>
		<path fill="url(#XMLID_37_)" d="M402.5,203.92c0.15,3.75-1.2,6.3-3.9,7.65c-12.45,7.5-18,15.9-17.1,25.35
			c0.15,1.05,0.45,2.101,0.75,3.3c13.95-8.4,27.75-8.4,41.25,0c0.45-1.05,0.75-1.95,0.9-2.7c1.2-5.55-0.3-10.95-4.35-16.351
			c-1.8-2.55-4.2-4.95-7.05-7.35c-0.6-0.45-1.05-0.9-1.5-1.2c-1.95-2.25-3-4.8-3-7.8C406.7,177.67,404.75,177.37,402.5,203.92z
			 M388.1,228.37l-1.35-1.2c0-0.6,0.6-0.899,1.5-0.899c1.2,0,1.5,0.3,1.5,0.899C389.75,227.92,389.3,228.37,388.1,228.37z
			 M420.5,231.07c-0.75,0-1.2-0.45-1.2-1.2s0.3-1.05,1.05-1.05c0.9,0,1.351,0.3,1.05,1.05C421.4,230.62,421.1,231.07,420.5,231.07z"
			/>
		<path d="M386.75,227.17l1.35,1.2c1.2,0,1.65-0.45,1.65-1.2c0-0.6-0.3-0.899-1.5-0.899C387.35,226.271,386.75,226.57,386.75,227.17
			z"/>
		<path d="M419.3,229.87c0,0.75,0.45,1.2,1.2,1.2c0.6,0,0.9-0.45,0.9-1.2c0.3-0.75-0.15-1.05-1.05-1.05
			C419.6,228.82,419.3,229.12,419.3,229.87z"/>
		<path fill="#FFFFFF" d="M395.6,247.271c1.05,0.3,2.25,0.45,3.45,0.6c2.55,0.3,5.25,0.3,7.8-0.15c0.9-0.15,1.65-0.3,2.4-0.6
			c3.75-0.9,7.35-2.55,11.25-4.8c0.45-0.45,0.9-0.75,1.5-1.05c0.45-0.3,1.05-0.75,1.5-1.05c-13.5-8.4-27.3-8.4-41.25,0
			C386.45,243.67,390.95,246.07,395.6,247.271z M408.5,241.12c-3.9-0.6-7.65-0.6-11.4,0C400.85,239.32,404.6,239.32,408.5,241.12z"
			/>
		<path fill="#FFFFFF" d="M397.1,241.12c3.75-0.6,7.5-0.6,11.4,0C404.6,239.32,400.85,239.32,397.1,241.12z"/>
		
			<linearGradient id="XMLID_38_" gradientUnits="userSpaceOnUse" x1="19178.6738" y1="3858.1748" x2="21636.2383" y2="3858.1748" gradientTransform="matrix(0 -0.0049 0.044 0 245.5181 350.0145)">
			<stop  offset="0" style="stop-color:#D1D3D4"/>
			<stop  offset="1" style="stop-color:#808284"/>
		</linearGradient>
		<path fill="url(#XMLID_38_)" d="M409.25,247.12c9,12,13.05,13.95,11.85,5.85l-0.6-10.65C416.6,244.57,413,246.22,409.25,247.12z"
			/>
		
			<linearGradient id="XMLID_39_" gradientUnits="userSpaceOnUse" x1="19178.7734" y1="2729.1353" x2="21636.373" y2="2729.1353" gradientTransform="matrix(0 -0.0049 0.044 0 245.5181 350.0145)">
			<stop  offset="0" style="stop-color:#D1D3D4"/>
			<stop  offset="1" style="stop-color:#808284"/>
		</linearGradient>
		<path fill="url(#XMLID_39_)" d="M382.25,240.22c-0.3-1.2-0.6-2.25-0.75-3.3c-10.8,2.55-21.75,8.7-32.55,18.3
			C360.8,247.72,371.9,242.62,382.25,240.22z"/>
		
			<linearGradient id="XMLID_40_" gradientUnits="userSpaceOnUse" x1="19178.7734" y1="4409.8105" x2="21636.373" y2="4409.8105" gradientTransform="matrix(0 -0.0049 0.044 0 245.5181 350.0145)">
			<stop  offset="0" style="stop-color:#D1D3D4"/>
			<stop  offset="1" style="stop-color:#808284"/>
		</linearGradient>
		<path fill="url(#XMLID_40_)" d="M423.5,240.22c-0.45,0.3-1.05,0.75-1.5,1.05c12.75,3.45,24.6,9.149,35.1,17.399
			c-7.649-8.55-18.6-15.6-32.7-21.149C424.25,238.271,423.95,239.17,423.5,240.22z"/>
		
			<linearGradient id="XMLID_41_" gradientUnits="userSpaceOnUse" x1="9925.0957" y1="1075.3662" x2="12382.6904" y2="1075.3662" gradientTransform="matrix(-2.000000e-004 -0.0122 0.0811 -0.0014 36.7046 277.1982)">
			<stop  offset="0" style="stop-color:#D1D3D4"/>
			<stop  offset="1" style="stop-color:#808284"/>
		</linearGradient>
		<path fill="url(#XMLID_41_)" d="M171.35,66.521c-12.45-9-24.899-13.65-37.05-14.101c-8.4-0.3-16.8,1.5-25.05,5.101
			c-3.9,1.8-7.95,4.05-11.85,6.75c-5.55,4.649-21.15,5.55-46.8,2.7c-18.75-1.65-28.5-1.05-29.7,1.8c32.25,6.6,64.5,13.95,96.6,21.75
			c5.85-0.3,4.95-2.4-2.4-6.3c-9-2.1-6-4.5,8.851-7.2c22.05-4.65,40.5-0.75,55.5,11.7c2.1,1.65,0.75,4.5-4.5,8.55v13.05
			c0.6,22.05,2.85,24.75,6.75,8.1c5.1-17.1,11.399-32.7,19.35-46.8c16.65-27.75,22.05-42.6,16.2-44.55
			c-9.15,20.25-20.1,38.1-32.85,53.55c-2.1-0.45-3-1.95-2.7-4.2C184.55,66.07,181.1,62.771,171.35,66.521z M39.35,71.17
			c0-0.45,0.45-0.75,1.8-0.75c1.5,0,2.1,0.3,1.95,1.05c0,0.75-0.6,1.05-1.65,1.05c-0.9,0-1.35-0.3-1.8-0.601L39.35,71.17z"/>
		<path d="M41.15,70.42c-1.35,0-1.8,0.3-1.8,0.75l0.3,0.75c0.45,0.3,0.9,0.601,1.8,0.601c1.05,0,1.65-0.3,1.65-1.05
			C43.25,70.72,42.65,70.42,41.15,70.42z"/>
		
			<linearGradient id="XMLID_42_" gradientUnits="userSpaceOnUse" x1="9925.1279" y1="1093.5728" x2="12382.7256" y2="1093.5728" gradientTransform="matrix(-2.000000e-004 -0.0122 0.0811 -0.0014 36.7046 277.1982)">
			<stop  offset="0" style="stop-color:#D1D3D4"/>
			<stop  offset="1" style="stop-color:#808284"/>
		</linearGradient>
		<path fill="url(#XMLID_42_)" d="M134.3,52.42c-3-4.95-4.95-9-5.85-12c-2.55-12.149-6.15-15.149-10.8-9
			c-5.55,6.601-8.4,15.45-8.4,26.101C117.5,53.92,125.9,52.12,134.3,52.42z"/>
		<path fill="#FFFFFF" d="M125.45,101.771c11.55-7.8,18.3-10.8,20.25-9c9.899,4.649,14.55,6.149,13.95,4.5c4.65-8.7,7.5-8.7,8.55,0
			c1.649,5.25,3.899,5.25,6.75,0c5.25-4.05,6.6-6.9,4.5-8.55c-15-12.45-33.45-16.35-55.5-11.7c-14.85,2.7-17.85,5.1-8.851,7.2
			c7.351,3.9,8.25,6,2.4,6.3c-32.1-7.8-64.35-15.15-96.6-21.75c-0.3,0.75,0.15,1.649,1.05,2.85c2.55,4.2,4.95,6.9,7.5,8.1
			c11.55,3.45,14.4,5.4,8.7,5.85c-4.5,0.75-1.95,3.9,7.65,9.45l26.55,14.399l5.1,2.101l0,0c4.35-5.101,11.4-4.351,21.45,1.95
			C107.3,112.42,116.15,108.521,125.45,101.771z M77.15,90.82c0,3.9-1.2,7.95-3.6,12.15C75.95,98.771,77.15,94.72,77.15,90.82z
			 M75.05,89.92c0.15,3.9-1.05,8.101-3.6,12.3C74,98.021,75.2,93.82,75.05,89.92z M72.8,89.47c0,4.05-1.05,7.8-3.3,11.55
			C71.75,97.271,72.8,93.521,72.8,89.47z M79.4,91.72c0.15,3.9-1.05,8.4-3.6,13.2C78.35,100.12,79.55,95.62,79.4,91.72z
			 M81.35,92.62c0.15,3.9-1.05,8.4-3.6,13.2C80.3,101.021,81.5,96.521,81.35,92.62z"/>
		
			<linearGradient id="XMLID_43_" gradientUnits="userSpaceOnUse" x1="9925.1123" y1="588.3369" x2="12382.7119" y2="588.3369" gradientTransform="matrix(-2.000000e-004 -0.0122 0.0811 -0.0014 36.7046 277.1982)">
			<stop  offset="0" style="stop-color:#D1D3D4"/>
			<stop  offset="1" style="stop-color:#808284"/>
		</linearGradient>
		<path fill="url(#XMLID_43_)" d="M77.45,111.521l-5.1-2.101c0.3,14.4,4.35,28.351,12.15,41.851c5.7,9.899,7.95,6.899,6.9-9
			c-8.25-10.2-12.9-20.4-14.1-30.601C77.45,111.67,77.45,111.67,77.45,111.521L77.45,111.521z"/>
		
			<linearGradient id="XMLID_44_" gradientUnits="userSpaceOnUse" x1="9925.1221" y1="731.9434" x2="12382.7158" y2="731.9434" gradientTransform="matrix(-2.000000e-004 -0.0122 0.0811 -0.0014 36.7046 277.1982)">
			<stop  offset="0" style="stop-color:#D1D3D4"/>
			<stop  offset="1" style="stop-color:#808284"/>
		</linearGradient>
		<path fill="url(#XMLID_44_)" d="M77.45,111.521c0,0.149,0,0.149-0.15,0.149c1.2,10.2,5.85,20.4,14.1,30.601
			c1.8,2.1,3.75,4.35,5.7,6.3c10.95,11.55,15,11.55,12.15,0l-10.35-35.1C88.85,107.17,81.8,106.42,77.45,111.521z"/>
		<path fill="#FFFFFF" d="M76.25,200.32c-0.75-0.6-1.2-0.9-1.2-1.05c0-0.75,0.45-1.05,1.35-1.05h0.15c-0.3-1.05-0.3-1.95-0.3-2.85
			c-16.05-16.8-25.65-15.6-28.65,3.6c0.3,1.35,0.45,2.85,0.9,4.35c5.1-6.9,10.05-6.9,15.15,0c-5.1-4.05-10.05-4.05-15.15,0
			c2.85,11.4,10.5,24.3,22.95,39.15c1.2,1.95,2.85,3.75,5.25,5.1c1.35,0.9,3,1.5,4.95,2.1c4.95,1.5,11.7,2.101,19.95,1.95
			c0.15-3.6,1.35-5.1,3.9-4.5c0.75,1.35,1.65,2.7,2.55,4.05c6-2.1,9.75-2.1,11.25-0.149c5.4,4.8,9.3,6.3,12,4.5
			c6.15-5.101,9.75-4.5,10.95,1.649c3.15-4.35,3.45-6.6,0.75-6.899c-4.2-1.95-7.35-4.8-9.15-8.55
			c-9.45-17.25-12.899-22.05-10.35-14.55c4.8,9.9,5.7,13.5,2.7,10.8c-7.95-10.95-15.9-17.4-23.7-19.35
			c-14.4-5.1-22.8-11.1-25.35-18.45C76.85,200.32,76.55,200.32,76.25,200.32z M94.4,227.92c-1.05,4.5-3.75,8.7-7.8,12.601
			C90.65,236.62,93.35,232.42,94.4,227.92z M96.95,229.72c-1.2,4.5-4.05,9-8.25,13.8C92.9,238.72,95.75,234.22,96.95,229.72z
			 M98.9,231.37c-1.05,4.5-3.75,9-8.25,13.8C95.15,240.37,97.85,235.87,98.9,231.37z M92.45,226.271c-1.2,4.5-3.9,8.85-7.95,12.899
			C88.55,235.12,91.25,230.771,92.45,226.271z M89.75,225.22c-1.05,4.5-3.45,8.4-7.35,11.85C86.3,233.62,88.7,229.72,89.75,225.22z"
			/>
		<path d="M75.05,199.271c0,0.149,0.45,0.45,1.2,1.05c0.3,0,0.6,0,0.9-0.15c0.45-0.149,0.75-0.3,0.75-0.899
			c0.15-0.75-0.3-1.05-1.35-1.05H76.4C75.5,198.22,75.05,198.521,75.05,199.271z"/>
		
			<linearGradient id="XMLID_45_" gradientUnits="userSpaceOnUse" x1="13246.2344" y1="793.3569" x2="15703.834" y2="793.3569" gradientTransform="matrix(0.0018 -0.0066 0.0454 0.0122 53.3379 357.1754)">
			<stop  offset="0" style="stop-color:#D1D3D4"/>
			<stop  offset="1" style="stop-color:#808284"/>
		</linearGradient>
		<path fill="url(#XMLID_45_)" d="M76.25,195.37c0,0.9,0,1.8,0.3,2.85c1.05,0,1.5,0.3,1.35,1.05c0,0.6-0.3,0.75-0.75,0.899
			c2.55,7.351,10.95,13.351,25.35,18.45c7.8,1.95,15.75,8.4,23.7,19.35c3,2.7,2.1-0.9-2.7-10.8c-2.55-7.5,0.9-2.7,10.35,14.55
			c1.8,3.75,4.95,6.6,9.15,8.55c2.7,0.3,2.4,2.55-0.75,6.899c0.15,0.9,0.15,2.101,0.3,3.45c7.05,24.9,10.8,31.8,11.1,20.7
			c2.7-23.25,11.7-40.05,27-50.4c2.55-7.649,6.15-13.95,10.8-18.899c4.35-15.3,2.7-17.7-5.101-6.9
			c-8.7,10.95-18.899,21.9-30.45,32.85c-9.75,8.85-15.15,8.85-16.5,0c-0.9-2.85-1.95-5.55-3.15-8.1c-5.55-12.6-12.9-24.3-22.2-35.1
			c-6.9-1.2-15.45-0.9-25.65,0.75C84.8,196.42,80.75,196.42,76.25,195.37z"/>
		
			<linearGradient id="XMLID_46_" gradientUnits="userSpaceOnUse" x1="13246.2344" y1="75.8628" x2="15703.8398" y2="75.8628" gradientTransform="matrix(0.0018 -0.0066 0.0454 0.0122 53.3379 357.1754)">
			<stop  offset="0" style="stop-color:#D1D3D4"/>
			<stop  offset="1" style="stop-color:#808284"/>
		</linearGradient>
		<path fill="url(#XMLID_46_)" d="M100.25,184.12c-2.55,6.15-6.6,10.05-11.85,11.4c10.2-1.65,18.75-1.95,25.65-0.75l-3.9-10.65
			C106.55,170.17,103.25,170.17,100.25,184.12z"/>
		
			<linearGradient id="XMLID_47_" gradientUnits="userSpaceOnUse" x1="13246.2578" y1="820.9858" x2="15703.8799" y2="820.9858" gradientTransform="matrix(0.0018 -0.0066 0.0454 0.0122 53.3379 357.1754)">
			<stop  offset="0" style="stop-color:#D1D3D4"/>
			<stop  offset="1" style="stop-color:#808284"/>
		</linearGradient>
		<path fill="url(#XMLID_47_)" d="M105.5,247.12c-2.55-0.6-3.75,0.9-3.9,4.5c6.6,12.9,14.7,25.8,24.3,38.7
			c11.25,11.7,5.25-1.35-17.85-39.15C107.15,249.82,106.25,248.47,105.5,247.12z"/>
		
			<linearGradient id="XMLID_48_" gradientUnits="userSpaceOnUse" x1="13246.2148" y1="-128.865" x2="15703.793" y2="-128.865" gradientTransform="matrix(0.0018 -0.0066 0.0454 0.0122 53.3379 357.1754)">
			<stop  offset="0" style="stop-color:#D1D3D4"/>
			<stop  offset="1" style="stop-color:#808284"/>
		</linearGradient>
		<path fill="url(#XMLID_48_)" d="M81.65,249.67c-1.95-0.6-3.6-1.2-4.95-2.1c-15.75,34.65-19.2,45.9-10.35,34.05
			C72.65,270.97,77.75,260.32,81.65,249.67z"/>
		<path d="M63.65,203.32c-5.1-6.9-10.05-6.9-15.15,0C53.6,199.271,58.55,199.271,63.65,203.32z"/>
		
			<linearGradient id="XMLID_49_" gradientUnits="userSpaceOnUse" x1="13246.0645" y1="1056.6162" x2="15703.7344" y2="1056.6162" gradientTransform="matrix(0.0018 -0.0066 0.0454 0.0122 53.3379 357.1754)">
			<stop  offset="0" style="stop-color:#D1D3D4"/>
			<stop  offset="1" style="stop-color:#808284"/>
		</linearGradient>
		<path fill="url(#XMLID_49_)" d="M136.25,229.87c1.2,2.55,2.25,5.25,3.15,8.1l2.1-4.05C143,231.97,141.35,230.62,136.25,229.87z"/>
		
			<linearGradient id="XMLID_50_" gradientUnits="userSpaceOnUse" x1="-7.8008" y1="1322.6045" x2="2449.8003" y2="1322.6045" gradientTransform="matrix(-0.0058 -0.0214 0.0626 -0.0168 49.2184 482.6162)">
			<stop  offset="0" style="stop-color:#D1D3D4"/>
			<stop  offset="1" style="stop-color:#808284"/>
		</linearGradient>
		<path fill="url(#XMLID_50_)" d="M172.7,401.021c-4.95,5.1-6.9,12.75-5.55,22.95c0.3,3.6,3.15,2.7,8.25-2.4
			c2.85-3.75,10.95,3.6,24.3,22.2c15.899,19.05,17.85,18,5.7-3.15c-8.1-14.7-16.05-28.05-23.85-40.05
			c-2.25-37.65-18.9-59.85-50.25-66.6c-13.2-2.25-26.4-2.85-39.75-1.65c-6.6,0.6-13.35,1.65-19.95,3.3
			c-12.3,2.7-24.45,7.05-36.6,13.05c-16.05,8.55-16.05,16.5,0,23.55c6.6,1.35,19.5,0.15,38.25-3.45c6.9-1.5,14.4-3.15,22.95-5.101
			c1.65-0.45,3.45-0.899,5.4-1.35c9.6-1.35,19.2-1.35,28.8,0C153.35,362.17,167.45,375.07,172.7,401.021z M175.25,382.57
			c-4.5-5.25-7.35-10.65-8.55-15.9C171.2,371.62,174.05,377.021,175.25,382.57z M127.55,347.92c-8.1,2.4-16.2,2.4-24.3,0
			C111.35,345.07,119.45,345.07,127.55,347.92z"/>
		
			<linearGradient id="XMLID_51_" gradientUnits="userSpaceOnUse" x1="-7.8462" y1="2249.1177" x2="2449.7856" y2="2249.1177" gradientTransform="matrix(-0.0058 -0.0214 0.0626 -0.0168 49.2184 482.6162)">
			<stop  offset="0" style="stop-color:#D1D3D4"/>
			<stop  offset="1" style="stop-color:#808284"/>
		</linearGradient>
		<path fill="url(#XMLID_51_)" d="M166.7,366.67c1.2,5.25,4.05,10.65,8.55,15.9C174.05,377.021,171.2,371.62,166.7,366.67z"/>
		
			<linearGradient id="XMLID_52_" gradientUnits="userSpaceOnUse" x1="-7.7524" y1="1529.1611" x2="2449.8269" y2="1529.1611" gradientTransform="matrix(-0.0058 -0.0214 0.0626 -0.0168 49.2184 482.6162)">
			<stop  offset="0" style="stop-color:#D1D3D4"/>
			<stop  offset="1" style="stop-color:#808284"/>
		</linearGradient>
		<path fill="url(#XMLID_52_)" d="M103.25,347.92c8.1,2.4,16.2,2.4,24.3,0C119.45,345.07,111.35,345.07,103.25,347.92z"/>
		
			<linearGradient id="XMLID_53_" gradientUnits="userSpaceOnUse" x1="-7.8813" y1="1081.7637" x2="2449.751" y2="1081.7637" gradientTransform="matrix(-0.0058 -0.0214 0.0626 -0.0168 49.2184 482.6162)">
			<stop  offset="0" style="stop-color:#D1D3D4"/>
			<stop  offset="1" style="stop-color:#808284"/>
		</linearGradient>
		<path fill="url(#XMLID_53_)" d="M71.6,335.62c6.6-1.65,13.35-2.7,19.95-3.3c-3.9-3.6-6.45-7.2-7.95-10.65
			C79.55,313.271,75.5,317.92,71.6,335.62z"/>
		
			<linearGradient id="XMLID_54_" gradientUnits="userSpaceOnUse" x1="-7.7781" y1="998.5078" x2="2449.812" y2="998.5078" gradientTransform="matrix(-0.0058 -0.0214 0.0626 -0.0168 49.2184 482.6162)">
			<stop  offset="0" style="stop-color:#D1D3D4"/>
			<stop  offset="1" style="stop-color:#808284"/>
		</linearGradient>
		<path fill="url(#XMLID_54_)" d="M73.25,368.771c16.8,18.149,24.15,21.6,22.35,10.2c-1.2-5.7-1.05-10.8,0.6-15.3
			C87.65,365.62,80.15,367.271,73.25,368.771z"/>
		<path fill="none" stroke="#000000" stroke-width="0.5" stroke-linecap="round" stroke-linejoin="round" d="M75.8,104.92
			c2.55-4.8,3.75-9.3,3.6-13.2"/>
		<path fill="none" stroke="#000000" stroke-width="0.5" stroke-linecap="round" stroke-linejoin="round" d="M517.4,81.22l5.7-2.4
			c2.851-2.85-4.05-4.35-21-4.5c-22.35-3.15-44.55-6.9-66.75-11.25c-20.7-3-22.35-2.1-5.25,2.7c15,6.6,15.3,8.399,0.9,5.399
			c-35.25-5.55-70.8-6.45-106.35-3"/>
		<path fill="none" stroke="#000000" stroke-width="0.5" stroke-linecap="round" stroke-linejoin="round" d="M84.5,239.17
			c4.05-4.05,6.75-8.399,7.95-12.899"/>
		<path fill="none" stroke="#000000" stroke-width="0.5" stroke-linecap="round" stroke-linejoin="round" d="M90.65,245.17
			c4.5-4.8,7.2-9.3,8.25-13.8"/>
		<path fill="none" stroke="#000000" stroke-width="0.5" stroke-linecap="round" stroke-linejoin="round" d="M88.7,243.521
			c4.2-4.8,7.05-9.3,8.25-13.8"/>
		<path fill="none" stroke="#000000" stroke-width="0.5" stroke-linecap="round" stroke-linejoin="round" d="M86.6,240.521
			c4.05-3.9,6.75-8.101,7.8-12.601"/>
		<path fill="none" stroke="#000000" stroke-width="0.5" stroke-linecap="round" stroke-linejoin="round" d="M142.25,257.17
			c3.15-4.35,3.45-6.6,0.75-6.899c-4.2-1.95-7.35-4.8-9.15-8.55c-9.45-17.25-12.899-22.05-10.35-14.55c4.8,9.9,5.7,13.5,2.7,10.8
			c-7.95-10.95-15.9-17.4-23.7-19.35c-14.4-5.1-22.8-11.1-25.35-18.45"/>
		<path fill="none" stroke="#000000" stroke-width="0.5" stroke-linecap="round" stroke-linejoin="round" d="M76.25,195.37
			c0,0.9,0,1.8,0.3,2.85"/>
		<path fill="none" stroke="#000000" stroke-width="0.5" stroke-linecap="round" stroke-linejoin="round" d="M357.35,81.82
			c1.05-5.4,1.05-10.05,0-13.8"/>
		<path fill="none" stroke="#000000" stroke-width="0.5" stroke-linecap="round" stroke-linejoin="round" d="M359.45,82.12
			c1.05-5.4,1.05-10.05,0-13.8"/>
		<path fill="none" stroke="#000000" stroke-width="0.5" stroke-linecap="round" stroke-linejoin="round" d="M324.35,68.32
			c-8.399,0.75-16.2,1.8-23.25,2.85"/>
		<path fill="none" stroke="#000000" stroke-width="0.5" stroke-linecap="round" stroke-linejoin="round" d="M77.75,105.82
			c2.55-4.8,3.75-9.3,3.6-13.2"/>
		<path fill="none" stroke="#000000" stroke-width="0.5" stroke-linecap="round" stroke-linejoin="round" d="M69.5,101.021
			c2.25-3.75,3.3-7.5,3.3-11.55"/>
		<path fill="none" stroke="#000000" stroke-width="0.5" stroke-linecap="round" stroke-linejoin="round" d="M71.45,102.22
			c2.55-4.2,3.75-8.4,3.6-12.3"/>
		<path fill="none" stroke="#000000" stroke-width="0.5" stroke-linecap="round" stroke-linejoin="round" d="M352.4,80.32
			c1.35-4.8,1.35-9.15,0.3-12.9"/>
		<path fill="none" stroke="#000000" stroke-width="0.5" stroke-linecap="round" stroke-linejoin="round" d="M350.15,79.57
			c1.2-4.05,1.35-8.1,0.15-12"/>
		<path fill="none" stroke="#000000" stroke-width="0.5" stroke-linecap="round" stroke-linejoin="round" d="M73.55,102.97
			c2.4-4.2,3.6-8.25,3.6-12.15"/>
		<path fill="none" stroke="#000000" stroke-width="0.5" stroke-linecap="round" stroke-linejoin="round" d="M174.95,97.271
			c5.25-4.05,6.6-6.9,4.5-8.55c-15-12.45-33.45-16.35-55.5-11.7c-14.85,2.7-17.85,5.1-8.851,7.2c7.351,3.9,8.25,6,2.4,6.3
			c-32.1-7.8-64.35-15.15-96.6-21.75"/>
		<path fill="none" stroke="#000000" stroke-width="0.5" stroke-linecap="round" stroke-linejoin="round" d="M354.5,80.47
			c1.35-4.65,1.5-9,0.3-12.75"/>
		<path fill="none" stroke="#000000" stroke-width="0.5" stroke-linecap="round" stroke-linejoin="round" d="M423.5,240.22
			c-13.5-8.4-27.3-8.4-41.25,0"/>
		<path fill="none" stroke="#000000" stroke-width="0.5" stroke-linecap="round" stroke-linejoin="round" d="M82.4,237.07
			c3.9-3.45,6.3-7.35,7.35-11.85"/>
		<path fill="none" stroke="#000000" stroke-linecap="round" stroke-linejoin="round" d="M406.85,247.72c0.9-0.15,1.65-0.3,2.4-0.6"
			/>
		<path fill="none" stroke="#000000" stroke-linecap="round" stroke-linejoin="round" d="M397.1,241.12c3.75-1.8,7.5-1.8,11.4,0
			C404.6,240.521,400.85,240.521,397.1,241.12"/>
		<path fill="none" stroke="#000000" stroke-linecap="round" stroke-linejoin="round" d="M406.85,247.72
			c-2.55,0.45-5.25,0.45-7.8,0.15"/>
		<path fill="none" stroke="#000000" stroke-linecap="round" stroke-linejoin="round" d="M382.25,240.22c-0.3-1.2-0.6-2.25-0.75-3.3
			"/>
		<path fill="none" stroke="#000000" stroke-linecap="round" stroke-linejoin="round" d="M395.6,247.271
			c-4.649-1.2-9.149-3.601-13.35-7.05"/>
		<path fill="none" stroke="#000000" stroke-linecap="round" stroke-linejoin="round" d="M420.05,221.17
			c4.05,5.4,5.55,10.8,4.35,16.351"/>
		<path fill="none" stroke="#000000" stroke-linecap="round" stroke-linejoin="round" d="M424.4,237.521
			c-0.15,0.75-0.45,1.649-0.9,2.7c-0.45,0.3-1.05,0.75-1.5,1.05"/>
		<path fill="none" stroke="#000000" stroke-linecap="round" stroke-linejoin="round" d="M420.5,242.32l0.6,10.65
			c1.2,8.1-2.85,6.15-11.85-5.85"/>
		<polyline fill="none" stroke="#000000" stroke-linecap="round" stroke-linejoin="round" points="409.25,247.12 408.95,252.82 
			406.85,247.72 		"/>
		<path fill="none" stroke="#000000" stroke-linecap="round" stroke-linejoin="round" d="M422,241.271
			c12.75,3.45,24.6,9.149,35.1,17.399c-7.649-8.55-18.6-15.6-32.7-21.149"/>
		<path fill="none" stroke="#000000" stroke-linecap="round" stroke-linejoin="round" d="M395.6,247.271
			c1.05,0.3,2.25,0.45,3.45,0.6"/>
		<path fill="none" stroke="#000000" stroke-linecap="round" stroke-linejoin="round" d="M409.25,247.12
			c3.75-0.9,7.35-2.55,11.25-4.8"/>
		<path fill="none" stroke="#000000" stroke-linecap="round" stroke-linejoin="round" d="M413,213.82c2.85,2.4,5.25,4.8,7.05,7.35"
			/>
		<path fill="none" stroke="#000000" stroke-linecap="round" stroke-linejoin="round" d="M382.25,240.22
			c-10.35,2.4-21.45,7.5-33.3,15c10.8-9.6,21.75-15.75,32.55-18.3"/>
		<polyline fill="none" stroke="#000000" stroke-linecap="round" stroke-linejoin="round" points="399.05,247.87 395.45,252.521 
			395.6,247.271 		"/>
		<path fill="none" stroke="#000000" stroke-linecap="round" stroke-linejoin="round" d="M134.3,52.42
			c12.15,0.45,24.6,5.101,37.05,14.101c9.75-3.75,13.2-0.45,10.351,9.899c-0.3,2.25,0.6,3.75,2.7,4.2
			c12.75-15.45,23.7-33.3,32.85-53.55c5.85,1.95,0.45,16.8-16.2,44.55c-7.95,14.1-14.25,29.7-19.35,46.8
			c-3.9,16.65-6.15,13.95-6.75-8.1v-13.05c-2.851,5.25-5.101,5.25-6.75,0c-1.05-8.7-3.9-8.7-8.55,0c0.6,1.649-4.05,0.149-13.95-4.5
			c-1.95-1.8-8.7,1.2-20.25,9c-9.3,6.75-18.15,10.649-26.55,11.7"/>
		<path fill="none" stroke="#000000" stroke-linecap="round" stroke-linejoin="round" d="M134.3,52.42c-3-4.95-4.95-9-5.85-12
			c-2.55-12.149-6.15-15.149-10.8-9c-5.55,6.601-8.4,15.45-8.4,26.101"/>
		<path fill="none" stroke="#000000" stroke-linecap="round" stroke-linejoin="round" d="M381.5,236.92
			c-0.9-9.45,4.65-17.85,17.1-25.35c2.7-1.35,4.05-3.9,3.9-7.65c2.25-26.55,4.2-26.25,6,0.9c0,3,1.05,5.55,3,7.8
			c0.45,0.3,0.9,0.75,1.5,1.2"/>
		<path fill="none" stroke="#000000" stroke-linecap="round" stroke-linejoin="round" d="M72.35,109.42L45.8,95.021
			c-9.6-5.55-12.15-8.7-7.65-9.45c5.7-0.45,2.85-2.4-8.7-5.85c-2.55-1.2-4.95-3.9-7.5-8.1c-0.9-1.2-1.35-2.1-1.05-2.85
			c1.2-2.851,10.95-3.45,29.7-1.8c25.65,2.85,41.25,1.95,46.8-2.7c3.9-2.7,7.95-4.95,11.85-6.75"/>
		<path fill="none" stroke="#000000" stroke-linecap="round" stroke-linejoin="round" d="M413,213.82
			c1.95-13.2,5.7-25.05,11.1-35.25c4.5-8.7,6.15-6.3,4.95,7.2c-5.55,8.85-8.55,20.55-9,35.399"/>
		<path fill="none" stroke="#000000" stroke-linecap="round" stroke-linejoin="round" d="M334.55,76.87c-4.95,0.9-7.95,1.5-9.15,1.8
			"/>
		<path fill="none" stroke="#000000" stroke-linecap="round" stroke-linejoin="round" d="M363.5,85.12h-9
			c-25.2-2.1-34.8-4.35-29.1-6.45"/>
		<path fill="none" stroke="#000000" stroke-linecap="round" stroke-linejoin="round" d="M428.45,42.82
			c11.1,1.8,21.3,5.25,30.45,10.2c17.85,7.649,27.9,10.649,30.15,8.7c6.75-3.15,10.8-3.15,12.45,0c3.45,4.2,6.6,6.6,9.45,7.2
			c8.55,2.851,23.85-9.899,45.6-38.25c17.4-16.35,15.75-7.95-4.65,25.2c-11.1,12.45-14.25,25.95-9.45,40.5
			c4.2,16.2-2.851,12.9-21-10.05c-1.05-2.1-2.4-3.75-4.05-5.1c-4.5-3.3-10.95-3.6-19.35-0.75v6.3c0.6,4.2-5.25,2.7-17.7-4.5H464.6
			c3.601,2.85,2.851,5.25-2.55,7.2c-4.35,2.55-9,0.9-13.95-4.95l-59.7,2.55"/>
		<path fill="none" stroke="#000000" stroke-linecap="round" stroke-linejoin="round" d="M325.4,78.67
			c-3.9,0.45-10.2-0.75-18.75-3.6c-3.9-1.05-5.7-2.4-5.55-3.9c0.15-3.6,11.851-8.55,35.25-14.85c21.601-7.05,41.4-11.55,59.4-13.8"
			/>
		<polyline fill="none" stroke="#000000" stroke-linecap="round" stroke-linejoin="round" points="72.35,109.42 77.45,111.521 
			77.45,111.521 		"/>
		<path fill="none" stroke="#000000" stroke-linecap="round" stroke-linejoin="round" d="M91.4,142.271
			c-8.25-10.2-12.9-20.4-14.1-30.601c0.15,0,0.15,0,0.15-0.149"/>
		<path fill="none" stroke="#000000" stroke-linecap="round" stroke-linejoin="round" d="M77.45,111.521
			c4.35-5.101,11.4-4.351,21.45,1.95"/>
		<path fill="none" stroke="#000000" stroke-linecap="round" stroke-linejoin="round" d="M91.4,142.271c1.8,2.1,3.75,4.35,5.7,6.3
			c10.95,11.55,15,11.55,12.15,0l-10.35-35.1"/>
		<path fill="none" stroke="#000000" stroke-linecap="round" stroke-linejoin="round" d="M388.4,87.07c-0.15,3.6,0.3,7.35,1.2,11.1
			c0.15,8.7-8.55,4.351-26.1-13.05"/>
		<path fill="none" stroke="#000000" stroke-linecap="round" stroke-linejoin="round" d="M114.05,194.771l-3.9-10.65
			c-3.6-13.95-6.9-13.95-9.9,0c-2.55,6.15-6.6,10.05-11.85,11.4"/>
		<path fill="none" stroke="#000000" stroke-linecap="round" stroke-linejoin="round" d="M363.5,85.12c-4.8-6.45,3.9-8.7,26.1-6.75
			c-0.6,2.85-1.05,5.7-1.2,8.7"/>
		<path fill="none" stroke="#000000" stroke-linecap="round" stroke-linejoin="round" d="M88.4,195.521
			c-3.6,0.899-7.65,0.899-12.15-0.15c-16.05-16.8-25.65-15.6-28.65,3.6c0.3,1.35,0.45,2.85,0.9,4.35"/>
		<path fill="none" stroke="#000000" stroke-linecap="round" stroke-linejoin="round" d="M395.75,42.521
			c5.7-0.601,11.25-1.05,16.5-1.2c5.7,0.15,11.1,0.6,16.2,1.5"/>
		<path fill="none" stroke="#000000" stroke-linecap="round" stroke-linejoin="round" d="M428.45,42.82
			c-5.851-7.65-9-14.25-9.45-19.5c-0.15-14.85-7.95-8.4-23.25,19.2"/>
		<path fill="none" stroke="#000000" stroke-linecap="round" stroke-linejoin="round" d="M381.5,353.92
			c-9.75-0.45-18.9-0.3-27.3,0.601"/>
		<path fill="none" stroke="#000000" stroke-linecap="round" stroke-linejoin="round" d="M108.05,251.17
			c-0.9-1.35-1.8-2.7-2.55-4.05c-2.55-0.6-3.75,0.9-3.9,4.5"/>
		<path fill="none" stroke="#000000" stroke-linecap="round" stroke-linejoin="round" d="M382.85,388.12
			c14.7-0.3,31.351-0.9,49.95-1.95l66.45,2.101c3.6,1.2,7.8,4.2,12.75,9l17.55,1.95l19.8,11.25c18,5.25,3.75-3.9-42.899-27.15
			c-29.25-12.15-59.4-20.55-90.75-25.2c-12.15-2.25-23.7-3.6-34.2-4.2"/>
		<path fill="none" stroke="#000000" stroke-linecap="round" stroke-linejoin="round" d="M422,241.271c-0.6,0.3-1.05,0.6-1.5,1.05"
			/>
		<path fill="none" stroke="#000000" stroke-linecap="round" stroke-linejoin="round" d="M48.5,203.32
			c2.85,11.4,10.5,24.3,22.95,39.15c1.2,1.95,2.85,3.75,5.25,5.1"/>
		<path fill="none" stroke="#000000" stroke-linecap="round" stroke-linejoin="round" d="M81.65,249.67c-1.95-0.6-3.6-1.2-4.95-2.1"
			/>
		<path fill="none" stroke="#000000" stroke-linecap="round" stroke-linejoin="round" d="M76.7,247.57
			c-15.75,34.65-19.2,45.9-10.35,34.05c6.3-10.65,11.4-21.3,15.3-31.95"/>
		<path fill="none" stroke="#000000" stroke-linecap="round" stroke-linejoin="round" d="M81.65,249.67
			c4.95,1.5,11.7,2.101,19.95,1.95"/>
		<path fill="none" stroke="#000000" stroke-linecap="round" stroke-linejoin="round" d="M48.5,203.32c5.1-4.05,10.05-4.05,15.15,0
			C58.55,196.42,53.6,196.42,48.5,203.32"/>
		<path fill="none" stroke="#000000" stroke-linecap="round" stroke-linejoin="round" d="M108.05,251.17c6-2.1,9.75-2.1,11.25-0.149
			c5.4,4.8,9.3,6.3,12,4.5c6.15-5.101,9.75-4.5,10.95,1.649c0.15,0.9,0.15,2.101,0.3,3.45c7.05,24.9,10.8,31.8,11.1,20.7
			c2.7-23.25,11.7-40.05,27-50.4c2.55-7.649,6.15-13.95,10.8-18.899c4.35-15.3,2.7-17.7-5.101-6.9
			c-8.7,10.95-18.899,21.9-30.45,32.85c-9.75,8.85-15.15,8.85-16.5,0"/>
		<path fill="none" stroke="#000000" stroke-linecap="round" stroke-linejoin="round" d="M139.4,237.97
			c-0.9-2.85-1.95-5.55-3.15-8.1"/>
		<path fill="none" stroke="#000000" stroke-linecap="round" stroke-linejoin="round" d="M139.4,237.97l2.1-4.05
			c1.5-1.95-0.15-3.3-5.25-4.05"/>
		<path fill="none" stroke="#000000" stroke-linecap="round" stroke-linejoin="round" d="M136.25,229.87
			c-5.55-12.6-12.9-24.3-22.2-35.1"/>
		<path fill="none" stroke="#000000" stroke-linecap="round" stroke-linejoin="round" d="M72.35,109.42
			c0.3,14.4,4.35,28.351,12.15,41.851c5.7,9.899,7.95,6.899,6.9-9"/>
		<path fill="none" stroke="#000000" stroke-linecap="round" stroke-linejoin="round" d="M114.05,194.771
			c-6.9-1.2-15.45-0.9-25.65,0.75"/>
		<path fill="none" stroke="#000000" stroke-linecap="round" stroke-linejoin="round" d="M101.6,251.62
			c6.6,12.9,14.7,25.8,24.3,38.7c11.25,11.7,5.25-1.35-17.85-39.15"/>
		<path fill="none" stroke="#000000" stroke-linecap="round" stroke-linejoin="round" d="M109.25,57.521
			c8.25-3.601,16.65-5.4,25.05-5.101"/>
		<path fill="none" stroke="#000000" stroke-linecap="round" stroke-linejoin="round" d="M96.2,363.67
			c1.65-0.45,3.45-0.899,5.4-1.35c9.6-1.35,19.2-1.35,28.8,0c22.95-0.15,37.05,12.75,42.3,38.7c-4.95,5.1-6.9,12.75-5.55,22.95
			c0.3,3.6,3.15,2.7,8.25-2.4c2.85-3.75,10.95,3.6,24.3,22.2c15.899,19.05,17.85,18,5.7-3.15c-8.1-14.7-16.05-28.05-23.85-40.05
			c-2.25-37.65-18.9-59.85-50.25-66.6c-13.2-2.25-26.4-2.85-39.75-1.65"/>
		<path fill="none" stroke="#000000" stroke-linecap="round" stroke-linejoin="round" d="M166.7,366.67
			c4.5,4.95,7.35,10.351,8.55,15.9C170.75,377.32,167.9,371.92,166.7,366.67"/>
		<path fill="none" stroke="#000000" stroke-linecap="round" stroke-linejoin="round" d="M91.55,332.32
			c-6.6,0.6-13.35,1.65-19.95,3.3"/>
		<path fill="none" stroke="#000000" stroke-linecap="round" stroke-linejoin="round" d="M91.55,332.32
			c-3.9-3.6-6.45-7.2-7.95-10.65c-4.05-8.399-8.1-3.75-12,13.95"/>
		<path fill="none" stroke="#000000" stroke-linecap="round" stroke-linejoin="round" d="M73.25,368.771
			c16.8,18.149,24.15,21.6,22.35,10.2c-1.2-5.7-1.05-10.8,0.6-15.3"/>
		<path fill="none" stroke="#000000" stroke-linecap="round" stroke-linejoin="round" d="M96.2,363.67
			c-8.55,1.95-16.05,3.601-22.95,5.101"/>
		<path fill="none" stroke="#000000" stroke-linecap="round" stroke-linejoin="round" d="M71.6,335.62
			c-12.3,2.7-24.45,7.05-36.6,13.05c-16.05,8.55-16.05,16.5,0,23.55c6.6,1.35,19.5,0.15,38.25-3.45"/>
		<path fill="none" stroke="#000000" stroke-linecap="round" stroke-linejoin="round" d="M103.25,347.92c8.1-2.85,16.2-2.85,24.3,0
			C119.45,350.32,111.35,350.32,103.25,347.92"/>
		<path fill="none" stroke="#000000" stroke-linecap="round" stroke-linejoin="round" d="M381.5,353.92
			c-4.05-10.05-6.9-19.5-8.7-28.5c-0.9-22.95-7.05-13.35-18.6,29.101"/>
		<path fill="none" stroke="#000000" stroke-linecap="round" stroke-linejoin="round" d="M382.85,388.12c-9.6,0.15-18.3,0.15-26.1,0
			"/>
		<path fill="none" stroke="#000000" stroke-linecap="round" stroke-linejoin="round" d="M356.75,388.12
			c19.2,36.3,27.75,46.95,26.1,32.1c-1.35-10.8-1.35-21.45,0-32.1"/>
		<path fill="none" stroke="#000000" stroke-linecap="round" stroke-linejoin="round" d="M396.2,369.82
			c8.85,2.1,17.7,3.15,26.55,2.85C414.2,369.07,405.35,368.17,396.2,369.82"/>
		<path fill="none" stroke="#000000" stroke-linecap="round" stroke-linejoin="round" d="M354.2,354.521
			c-10.351,0.899-19.8,3-28.2,6c-23.1,8.25-28.5,15.45-16.05,21.75c6.75,3.45,22.5,5.399,46.8,5.85"/>
		<path fill="none" stroke="#000000" stroke-linecap="round" stroke-linejoin="round" d="M469.1,377.771
			c6.45,2.55,12.9,4.2,19.351,4.649C482,379.271,475.55,377.62,469.1,377.771"/>
		<path fill="none" stroke="#DE1E2A" stroke-width="5" d="M17.9,507.22l26.1-25.2l27.9,33.3l25.2-36l25.2,36.9l27.9-38.7l33.3,36
			l21.6-28.8l31.5,24.3c41.101-14.851,78.9-19.95,113.4-15.3c31.65,6.45,64.35,6.45,98.1,0c34.5-7.8,67.8-7.8,99.9,0h31.5"/>
		<text transform="matrix(1 0 0 1 235.7002 75.2949)" font-family="'ArialMT'" font-size="21.6">Side</text>
		<text transform="matrix(1 0 0 1 234.7998 241.7949)" font-family="'ArialMT'" font-size="21.6">Front</text>
		<text transform="matrix(1 0 0 1 236.5996 356.9951)" font-family="'ArialMT'" font-size="21.6">Top</text>
		<text transform="matrix(1 0 0 1 36.1997 544.5703)" font-family="'ArialMT'" font-size="18">Aggressive behaviour</text>
		<text transform="matrix(1 0 0 1 329.2998 543.6699)" font-family="'ArialMT'" font-size="18">Non-aggressive behaviour</text>
	</g>
</g>
<g id="Layer_2">
</g>
</svg>
